<?xml version="1.0" standalone="no"?>
<!DOCTYPE svg PUBLIC "-//W3C//DTD SVG 20010904//EN"
 "http://www.w3.org/TR/2001/REC-SVG-20010904/DTD/svg10.dtd">
<svg version="1.0" xmlns="http://www.w3.org/2000/svg"
 width="947.000000pt" height="947.000000pt" viewBox="0 0 947.000000 947.000000"
 preserveAspectRatio="xMidYMid meet">
<metadata>
Created by potrace 1.14, written by Peter Selinger 2001-2017
</metadata>
<g transform="translate(0.000000,947.000000) scale(0.100000,-0.100000)"
fill="#000000" stroke="none">
<path d="M5212 9455 c-352 -64 -636 -286 -731 -571 -84 -252 -13 -507 202
-716 65 -64 76 -65 124 -9 29 33 29 55 -1 117 -26 55 -71 196 -82 259 -23 136
-8 297 38 400 107 242 336 413 633 475 80 17 82 17 143 25 47 7 70 20 40 23
-91 10 -306 8 -366 -3z"/>
<path d="M6705 9136 c-57 -47 -121 -68 -207 -69 -88 -1 -124 4 -293 36 -211
41 -341 50 -495 34 -285 -30 -502 -196 -563 -430 -16 -61 -14 -68 12 -39 9 10
46 43 84 73 148 122 351 212 527 234 57 7 203 7 255 -1 391 -54 550 -31 657
95 30 36 73 101 66 101 -2 0 -21 -15 -43 -34z"/>
<path d="M3537 9054 c-1 -1 -29 -4 -62 -7 -239 -24 -484 -135 -630 -288 l-40
-41 40 24 c109 68 295 138 405 154 30 4 64 9 75 10 38 6 220 5 260 -1 294 -42
537 -174 683 -370 l45 -60 -8 40 c-4 22 -9 49 -11 60 -18 114 -58 194 -127
255 -22 19 -52 45 -66 58 -74 64 -270 144 -386 158 -59 7 -173 12 -178 8z"/>
<path d="M1900 8580 c-144 -27 -237 -154 -283 -385 -22 -106 -24 -143 -22
-315 1 -107 5 -208 9 -225 4 -16 14 -66 22 -109 20 -100 59 -221 86 -263 16
-28 26 -33 56 -33 43 0 52 9 551 538 124 132 178 194 155 180 -5 -4 -53 -11
-107 -18 -53 -6 -107 -13 -120 -15 -12 -2 -49 -6 -82 -10 -32 -4 -63 -8 -66
-11 -4 -2 -10 -1 -13 4 -7 11 103 118 181 174 123 90 325 172 575 234 94 23
107 29 111 50 3 16 -1 25 -12 28 -18 5 -428 93 -470 101 -34 6 -70 13 -101 20
-53 11 -106 21 -165 31 -16 2 -57 10 -90 16 -75 13 -169 17 -215 8z"/>
<path d="M7530 8584 c-14 -3 -92 -16 -175 -30 -82 -14 -159 -27 -170 -29 -11
-1 -38 -6 -60 -10 -22 -3 -48 -8 -57 -11 -10 -3 -28 -7 -40 -9 -13 -3 -112
-23 -221 -45 -108 -22 -199 -40 -202 -40 -8 0 -6 -38 3 -44 4 -3 89 -30 188
-61 173 -54 326 -110 389 -142 95 -48 194 -131 258 -215 26 -34 35 -54 20 -45
-5 3 -48 10 -98 16 -120 14 -170 21 -233 30 -29 5 -51 5 -50 0 3 -6 126 -140
248 -269 19 -20 85 -90 147 -156 251 -267 280 -294 319 -294 13 0 32 11 43 26
34 43 101 271 116 399 4 28 8 61 11 75 2 14 4 84 4 155 1 193 -36 405 -88 512
-32 68 -101 139 -158 164 -44 20 -146 32 -194 23z"/>
<path d="M3518 8485 c-2 -2 -25 -6 -53 -10 -27 -3 -51 -7 -52 -9 -2 -2 34 -11
79 -21 218 -46 407 -168 531 -342 43 -61 44 -60 -73 -43 -108 15 -140 19 -250
26 -199 14 -457 7 -580 -15 -30 -6 -66 -12 -80 -15 -149 -25 -336 -99 -458
-181 -80 -53 -137 -101 -107 -90 204 72 280 88 415 89 68 0 158 -9 166 -17 2
-2 -43 -14 -99 -27 -114 -27 -105 -24 -132 -34 -109 -42 -136 -53 -175 -74
-51 -28 -180 -112 -180 -117 0 -2 10 -2 23 1 164 33 423 38 602 10 206 -32
216 -37 133 -60 -82 -23 -239 -91 -306 -133 -29 -18 -55 -33 -58 -33 -2 0 -30
-19 -61 -41 -221 -164 -379 -378 -498 -679 -73 -183 -142 -254 -435 -445 -225
-147 -304 -209 -418 -324 -167 -170 -238 -300 -357 -661 -72 -217 -145 -399
-189 -468 -14 -23 -26 -44 -26 -48 0 -5 -79 -123 -90 -134 -3 -3 -30 -34 -60
-70 -30 -36 -60 -69 -67 -73 -7 -4 -13 -13 -13 -18 0 -15 107 63 175 128 186
178 344 431 440 703 103 291 253 438 550 538 88 30 207 63 211 59 1 -1 -18
-52 -42 -114 -60 -152 -111 -319 -129 -417 -13 -76 -14 -319 -1 -398 19 -119
18 -111 41 -218 9 -41 18 -82 20 -91 2 -8 24 -99 49 -202 25 -103 48 -197 50
-209 3 -13 16 -77 30 -143 13 -66 27 -138 31 -160 19 -125 30 -225 40 -345 2
-25 5 -114 6 -198 0 -83 2 -152 4 -152 2 0 19 121 31 225 2 17 6 39 8 50 3 11
8 67 11 125 4 58 8 116 11 130 2 13 6 128 9 255 15 634 16 636 42 765 21 106
38 144 60 135 90 -39 217 -82 324 -109 70 -18 135 -38 143 -45 20 -17 7 -63
-83 -295 -72 -184 -123 -347 -136 -436 -3 -19 -8 -42 -10 -50 -19 -68 -27
-354 -12 -445 67 -411 263 -867 467 -1084 47 -50 51 -52 44 -25 -4 16 -10 34
-14 39 -14 19 -99 291 -120 383 -21 94 -23 106 -39 222 -12 83 -7 318 9 390
13 64 50 182 59 192 3 4 6 -45 5 -109 0 -112 25 -357 40 -382 2 -3 7 -23 10
-43 16 -104 93 -347 178 -568 53 -135 142 -307 229 -440 89 -137 99 -168 95
-278 -6 -138 -21 -194 -88 -327 -77 -152 -61 -148 -164 -46 -277 273 -538 624
-676 911 -97 201 -118 243 -114 227 3 -9 8 -37 11 -60 5 -35 33 -164 60 -270
14 -58 63 -205 93 -282 109 -273 248 -483 478 -716 57 -59 104 -110 104 -113
0 -8 -104 -161 -215 -316 -45 -63 -85 -121 -90 -129 -6 -10 102 65 160 112 36
29 227 163 262 184 l42 24 68 -53 c38 -29 76 -57 84 -63 9 -5 49 -32 90 -59
41 -27 90 -59 109 -71 46 -31 271 -154 335 -184 94 -45 200 -93 222 -101 17
-7 12 5 -29 66 -52 79 -103 178 -133 254 -15 40 -24 48 -78 74 -122 56 -340
188 -421 253 l-28 23 93 44 c52 24 139 58 194 77 55 18 105 37 110 42 7 7 7 8
0 5 -5 -3 -37 -9 -70 -13 -32 -3 -62 -8 -65 -10 -3 -2 -23 -6 -44 -9 -60 -10
-208 -62 -294 -103 -79 -38 -92 -46 -174 -101 -25 -18 -49 -32 -52 -32 -3 0
16 30 41 68 121 176 258 425 309 559 24 64 26 75 19 193 -3 69 -8 143 -11 165
-8 59 -8 351 0 415 19 145 45 245 96 374 45 112 99 207 160 285 35 44 44 50
60 41 33 -18 45 -11 23 13 -33 35 -93 134 -108 177 l-14 39 67 -2 67 -2 5 -75
5 -74 27 25 c117 107 289 211 483 292 145 60 408 126 565 142 88 8 347 8 362
-1 8 -5 9 4 6 34 l-6 41 52 15 c73 21 127 32 156 32 23 -1 25 -5 24 -41 -2
-89 -15 -194 -34 -270 -11 -44 -22 -88 -25 -98 -9 -37 -75 -164 -104 -201 -39
-49 -39 -53 3 -21 31 24 36 25 85 14 28 -6 53 -14 56 -19 3 -5 -3 -30 -14 -57
-28 -73 -53 -197 -55 -282 l-3 -76 -30 -1 c-26 -1 -33 5 -47 36 -9 20 -26 46
-37 56 l-22 19 8 -70 c19 -165 4 -297 -40 -345 -19 -21 -69 -27 -80 -10 -4 6
-11 8 -16 5 -5 -3 -37 21 -71 55 l-63 61 31 15 c17 8 49 33 72 54 43 42 107
128 99 136 -7 7 -186 18 -312 18 -116 1 -262 -8 -335 -19 -186 -30 -256 -51
-415 -126 l-68 -32 32 -26 31 -26 -22 -26 c-13 -14 -45 -42 -71 -62 -84 -64
-132 -46 -163 60 -19 63 -22 200 -6 271 6 24 6 42 1 42 -10 0 -51 -80 -69
-135 -7 -22 -28 -64 -46 -93 -19 -28 -30 -52 -25 -52 6 0 12 8 15 18 4 9 14
27 24 39 17 22 17 22 16 -39 -1 -34 5 -88 12 -120 l14 -58 -34 -48 c-90 -127
-136 -288 -130 -460 3 -91 21 -135 99 -242 54 -74 224 -244 292 -292 l45 -33
-92 -3 c-71 -2 -91 -6 -87 -16 3 -7 57 -94 120 -192 180 -283 222 -359 294
-538 49 -122 99 -301 109 -389 5 -42 10 -55 18 -47 13 13 16 466 3 570 -13
118 -17 144 -28 200 -6 30 -13 68 -16 85 -18 103 -93 314 -137 383 l-24 39 76
-39 c220 -111 509 -85 664 60 15 14 30 24 32 21 6 -6 -21 -183 -40 -259 -31
-126 -95 -313 -151 -440 -8 -19 -22 -51 -30 -70 -35 -80 -136 -274 -189 -361
-58 -96 -142 -220 -156 -229 -11 -8 13 -80 27 -80 16 0 174 165 263 275 40 50
77 95 82 102 5 6 36 51 68 100 185 278 310 568 402 929 21 84 42 173 46 200
l7 48 18 -23 c38 -47 65 -165 74 -326 3 -44 7 -89 9 -100 3 -11 5 -27 5 -35 1
-14 32 16 187 181 76 80 195 260 252 379 71 149 123 319 165 540 6 29 -2 -166
-9 -225 -9 -79 -24 -151 -43 -203 -11 -28 -18 -52 -16 -52 1 0 25 33 51 72 27
40 51 75 54 78 3 3 31 48 62 100 216 366 335 682 382 1015 24 167 14 466 -19
571 -6 17 -5 17 5 2 17 -28 48 -133 66 -226 24 -124 23 -411 -1 -532 -3 -14
-10 -50 -15 -80 -18 -101 -29 -148 -54 -236 -14 -48 -24 -89 -22 -91 6 -6 153
299 196 407 33 81 96 263 105 300 1 3 11 46 23 95 11 50 23 104 26 120 3 17
10 53 15 80 5 28 9 57 9 65 0 8 3 42 7 74 4 33 8 105 8 160 3 276 -46 511
-151 738 -48 104 -76 145 -188 280 -47 57 -92 116 -101 132 -17 32 -26 93 -15
100 4 2 60 7 125 10 65 4 134 8 155 10 20 3 64 7 97 11 32 4 62 8 66 10 10 7
70 -56 104 -110 78 -122 102 -255 110 -610 6 -271 15 -576 20 -640 6 -86 16
-188 21 -226 2 -20 7 -55 9 -79 4 -42 10 -78 24 -170 5 -31 8 -2 8 90 1 124 8
263 18 350 2 19 7 60 10 90 3 30 10 78 15 105 5 28 12 66 15 85 13 80 50 249
105 475 67 277 67 276 97 440 24 127 24 394 0 495 -21 92 -86 288 -131 401
-19 46 -33 85 -32 86 4 4 120 -28 196 -54 248 -84 394 -194 493 -373 13 -25
48 -108 77 -185 61 -161 100 -243 177 -367 117 -189 290 -376 407 -438 l41
-22 -25 24 c-49 45 -143 162 -195 242 -46 72 -135 243 -135 260 0 3 -9 25 -19
49 -11 23 -39 101 -62 172 -153 477 -238 622 -494 841 -71 60 -115 92 -333
237 -173 114 -188 126 -262 197 -66 63 -103 122 -146 231 -88 225 -191 385
-344 540 -154 155 -329 262 -553 337 -98 33 -96 36 48 58 22 3 43 8 46 10 13
8 171 18 279 18 110 0 234 -8 286 -19 13 -3 36 -8 51 -11 52 -11 -54 62 -182
126 -89 44 -155 69 -254 94 -150 38 -148 44 17 50 130 5 282 -26 417 -84 25
-11 45 -18 45 -16 0 3 -33 29 -74 60 -193 145 -436 228 -736 253 -148 12 -441
6 -580 -12 -19 -3 -55 -7 -80 -10 -25 -3 -64 -8 -87 -11 -48 -6 -50 -4 -25 34
66 104 181 208 302 274 77 42 224 88 315 99 6 1 -6 5 -25 10 -51 14 -247 20
-300 9 -25 -4 -61 -11 -82 -14 -161 -25 -404 -160 -560 -311 -126 -123 -236
-268 -308 -408 -19 -37 -37 -67 -40 -67 -3 0 -14 17 -25 38 -126 248 -337 483
-545 609 -101 62 -237 117 -355 144 -44 10 -279 21 -287 14z m701 -755 c122
-165 243 -268 427 -362 l84 -43 88 44 c196 99 309 199 451 398 l59 82 46 -69
c75 -114 228 -284 328 -365 103 -83 252 -181 368 -239 68 -35 246 -108 320
-131 215 -69 297 -174 475 -610 31 -77 63 -153 70 -170 67 -154 113 -322 119
-434 17 -310 -207 -513 -709 -646 -96 -25 -328 -71 -410 -80 -27 -4 -51 -7
-52 -9 -1 -1 48 -17 110 -35 130 -37 223 -86 266 -138 37 -45 38 -50 9 -59
-76 -23 -385 -190 -374 -201 2 -3 46 7 98 22 51 15 100 29 108 31 8 1 64 17
125 33 122 34 118 35 135 -42 16 -78 15 -82 -31 -90 -135 -26 -440 -125 -514
-168 -57 -33 -53 -35 43 -14 60 12 103 20 232 40 14 2 43 6 65 9 22 4 51 8 65
11 14 2 55 7 91 10 l66 6 -9 -62 c-4 -35 -9 -64 -11 -65 -3 -3 -41 -10 -107
-19 -163 -22 -345 -86 -492 -172 -91 -52 -106 -69 -46 -47 61 21 270 79 353
97 110 24 255 42 255 31 0 -3 -15 -34 -32 -67 -62 -116 -171 -206 -288 -237
-49 -13 -58 -15 -145 -31 -33 -5 -85 -17 -115 -24 -30 -8 -66 -16 -80 -19 -14
-2 -101 -23 -195 -46 -202 -50 -173 -43 -315 -72 -176 -36 -231 -17 -244 85
-24 181 -12 279 43 347 28 35 108 81 196 114 116 43 256 118 298 159 61 59
107 157 108 227 1 75 -7 116 -41 207 l-29 78 0 -95 c-1 -107 -5 -137 -27 -197
-34 -91 -148 -152 -255 -135 -30 4 -72 5 -94 1 -44 -8 -74 -12 -185 -28 -95
-14 -140 -19 -215 -27 -33 -3 -74 -7 -90 -9 -17 -2 -68 -7 -114 -11 -63 -4
-100 -14 -150 -36 -36 -17 -85 -33 -108 -36 -57 -6 -124 20 -145 56 -20 34
-23 50 -43 207 -11 89 -15 119 -19 122 -6 6 -26 -145 -26 -197 0 -123 48 -232
129 -293 52 -39 107 -60 201 -77 168 -29 234 -70 284 -175 15 -30 20 -66 22
-145 6 -193 -43 -262 -259 -368 -186 -91 -272 -114 -439 -118 -112 -3 -149 0
-208 17 -151 42 -262 115 -359 238 l-35 44 60 -7 c104 -12 237 -20 319 -20
107 1 254 14 260 24 3 4 -37 15 -88 25 -168 30 -481 95 -547 113 -50 13 -68
23 -76 42 -16 33 -29 114 -18 107 5 -3 32 -8 59 -11 28 -4 64 -9 80 -11 145
-22 326 -31 498 -26 20 0 37 5 37 10 0 4 -96 32 -212 61 -255 62 -378 96 -436
117 l-43 16 2 63 c1 35 5 68 10 75 5 9 29 7 95 -10 116 -27 142 -31 304 -46
l45 -4 -39 20 c-22 12 -62 29 -90 39 -75 26 -269 109 -279 119 -12 12 59 161
113 241 23 34 70 91 105 126 34 35 62 64 61 65 0 0 -30 2 -66 4 -56 3 -129 11
-270 31 -239 34 -457 106 -600 199 -280 181 -345 474 -203 910 55 172 198 512
270 645 96 176 211 317 296 361 21 11 84 36 140 55 395 136 766 415 959 721
40 64 40 64 56 41 9 -13 41 -57 71 -98z m1668 -4190 c67 -32 164 -87 215 -121
108 -74 255 -215 320 -309 49 -70 128 -214 128 -234 0 -21 -103 -66 -219 -95
-154 -39 -294 -48 -608 -42 l-72 1 -9 43 c-14 68 -6 243 17 329 11 42 36 111
55 152 19 42 33 76 30 76 -2 0 -18 -23 -35 -51 -23 -37 -36 -49 -48 -44 -9 4
-29 9 -44 12 -27 5 -27 6 -11 30 53 82 100 197 119 290 8 38 -2 40 162 -37z
m-1389 -906 c26 -23 34 -53 19 -71 -13 -17 -62 -16 -76 0 -18 22 -24 73 -11
96 12 24 14 23 68 -25z m539 -7 c5 -52 -19 -80 -64 -75 -23 2 -29 8 -31 34 -3
27 3 36 39 63 24 17 45 29 47 26 3 -3 7 -24 9 -48z m-438 10 c18 -23 24 -72 9
-84 -19 -15 -58 2 -58 26 0 27 18 71 29 71 4 0 14 -6 20 -13z m106 -17 c20
-38 19 -57 -2 -69 -40 -22 -69 31 -43 80 15 27 27 24 45 -11z m93 18 c16 -16
16 -88 0 -89 -45 -4 -59 12 -48 52 15 51 26 59 48 37z m102 -8 c6 -12 10 -33
8 -48 -2 -23 -8 -27 -33 -27 -28 0 -30 3 -28 33 1 32 17 62 34 62 5 0 13 -9
19 -20z m70 -234 c14 -3 37 -8 52 -11 15 -3 83 -34 151 -69 94 -48 132 -63
157 -60 36 4 79 32 110 71 22 28 23 28 50 -18 14 -24 22 -69 22 -120 0 -86
-67 -179 -184 -258 -57 -38 -72 -40 -64 -6 8 33 -3 31 -39 -7 -71 -73 -237
-181 -346 -223 -123 -49 -203 -45 -339 18 -112 52 -196 109 -291 195 -53 49
-62 51 -53 17 8 -34 -7 -32 -64 7 -140 96 -200 199 -180 307 7 40 34 111 42
111 1 0 23 -20 48 -44 73 -70 105 -67 274 24 123 66 192 78 439 75 105 -2 201
-6 215 -9z"/>
<path d="M3074 6325 c-13 -34 -19 -124 -12 -183 7 -62 39 -138 74 -181 64 -77
177 -119 336 -126 138 -6 174 -11 235 -31 55 -18 154 -76 174 -101 13 -15 12
-15 -11 0 -36 23 -154 44 -235 42 -122 -4 -138 -5 -133 -10 3 -3 25 -8 49 -11
97 -13 186 -43 332 -111 76 -36 97 -50 98 -67 3 -111 17 -231 25 -224 2 3 7
25 10 49 3 24 9 69 14 99 5 30 12 71 15 90 28 175 100 354 195 485 60 82 57
84 -16 6 -88 -93 -139 -161 -175 -233 -16 -32 -30 -58 -32 -58 -1 0 -3 21 -5
48 -5 95 -65 268 -105 300 -12 10 -18 3 -37 -43 -27 -68 -108 -152 -176 -185
-56 -27 -147 -34 -208 -16 -36 10 -34 11 45 11 97 0 135 15 199 77 49 49 88
122 97 183 5 42 4 45 -23 56 -16 6 -62 12 -101 14 l-73 4 0 -43 c0 -28 -7 -52
-20 -68 -68 -87 -200 -42 -200 67 0 24 5 47 10 50 22 14 6 23 -77 45 -49 12
-125 36 -170 51 -95 34 -92 33 -99 14z"/>
<path d="M6265 6305 c-49 -19 -122 -41 -161 -51 l-71 -17 12 -35 c33 -95 -61
-181 -151 -139 -40 20 -67 68 -62 112 l4 33 -76 -3 c-93 -4 -130 -17 -130 -46
0 -24 21 -101 30 -109 3 -3 12 -18 20 -34 56 -108 210 -174 317 -136 25 9 26
9 9 -4 -22 -18 -109 -30 -157 -22 -99 15 -203 99 -257 207 l-29 61 -22 -31
c-33 -46 -68 -139 -82 -215 l-13 -66 -30 57 c-35 65 -94 145 -156 213 l-41 45
43 -70 c93 -149 132 -268 155 -465 3 -30 7 -64 8 -75 1 -11 3 -42 4 -70 2 -39
4 -45 11 -29 4 12 11 38 14 59 13 78 16 82 84 118 130 68 300 126 385 132 51
3 59 15 11 17 -172 6 -239 -1 -344 -39 -31 -10 47 47 95 71 75 38 157 55 288
60 166 8 243 31 322 99 89 77 123 197 101 355 -9 62 -7 62 -131 17z"/>
<path d="M4900 5423 c-72 -11 -200 -65 -200 -84 0 -10 122 -5 139 6 30 18 177
23 296 11 91 -9 84 -9 110 -7 19 2 19 2 2 15 -47 36 -261 72 -347 59z"/>
<path d="M6087 3188 c-39 -30 -38 -84 1 -115 38 -30 97 -2 106 50 9 54 -63 98
-107 65z"/>
<path d="M1900 7274 c0 -5 -13 -23 -28 -41 -15 -17 -38 -47 -52 -65 -37 -48
-182 -188 -196 -188 -7 0 -14 -7 -18 -15 -3 -8 -12 -15 -20 -15 -7 0 -16 -7
-20 -15 -3 -8 -12 -15 -20 -15 -8 0 -16 -4 -18 -8 -4 -10 -148 -85 -148 -77 0
3 -13 -1 -29 -9 -34 -18 -66 -25 -151 -34 l-65 -6 50 -8 c79 -12 214 -2 290
21 140 41 265 139 341 267 48 82 100 202 91 211 -4 3 -7 2 -7 -3z"/>
<path d="M7556 7260 c13 -51 83 -189 122 -242 83 -112 195 -190 322 -223 72
-19 233 -27 295 -15 l40 8 -45 3 c-87 5 -138 16 -159 33 -11 8 -13 8 -7 -1 5
-9 2 -11 -8 -7 -9 3 -16 10 -16 16 0 5 -4 7 -8 4 -11 -7 -154 61 -164 77 -4 7
-8 8 -8 3 0 -5 -11 1 -25 14 -14 13 -25 21 -25 18 0 -24 -214 191 -274 275
-10 15 -25 35 -33 44 -13 17 -13 16 -7 -7z"/>
<path d="M862 6638 c70 -132 251 -274 406 -319 23 -7 41 -15 40 -19 -2 -4 -32
-40 -68 -79 -136 -152 -256 -354 -324 -546 -31 -86 -81 -282 -90 -349 -4 -27
-9 -52 -11 -55 -1 -3 -6 -35 -10 -71 -4 -36 -8 -67 -10 -70 -2 -3 -6 -48 -10
-100 -4 -52 -9 -115 -11 -140 -7 -93 14 -12 31 115 36 282 90 465 211 709 83
166 197 333 334 491 35 40 180 183 380 375 l105 100 -55 -25 c-110 -49 -266
-75 -452 -76 -177 0 -312 26 -430 84 l-67 33 31 -58z"/>
<path d="M8605 6684 c-50 -39 -198 -84 -325 -99 -63 -7 -258 -7 -310 0 -126
16 -215 38 -280 67 -25 11 -49 22 -55 25 -5 2 44 -47 110 -109 420 -397 563
-573 710 -873 54 -109 137 -328 150 -395 2 -9 12 -60 23 -111 11 -52 23 -116
26 -144 13 -113 18 -142 26 -175 7 -25 8 -9 4 55 -4 90 -6 108 -25 260 -28
225 -100 484 -182 655 -72 150 -200 334 -296 424 -17 17 -31 33 -31 37 0 4 15
11 33 14 52 11 172 73 236 121 95 71 166 158 203 247 9 21 8 21 -17 1z"/>
<path d="M1549 5068 c-31 -77 -168 -287 -352 -542 -209 -288 -260 -443 -252
-766 2 -91 6 -175 9 -188 5 -22 18 -132 19 -160 0 -6 3 -10 6 -7 3 3 6 38 7
78 1 77 12 216 19 257 2 14 6 42 9 62 20 130 73 290 130 390 37 66 133 197
192 264 106 119 142 161 184 214 56 69 54 63 39 110 -14 47 -14 203 0 264 14
58 9 69 -10 24z"/>
<path d="M7895 5081 c22 -76 25 -211 7 -305 -9 -44 -8 -51 13 -75 13 -14 38
-44 57 -67 18 -23 80 -95 136 -160 268 -308 351 -526 367 -963 4 -101 13 -148
17 -80 2 40 3 49 11 109 17 115 25 350 13 406 -2 12 -7 45 -11 74 -17 137 -84
286 -204 455 -42 61 -116 164 -162 230 -74 105 -209 318 -209 330 0 3 -9 19
-21 37 -15 25 -19 27 -14 9z"/>
<path d="M1701 4373 c-2 -165 -51 -262 -275 -543 -167 -210 -191 -267 -191
-465 0 -153 4 -180 45 -311 30 -94 151 -356 184 -399 14 -18 14 -14 0 35 -9
30 -18 64 -20 75 -2 11 -6 31 -9 45 -41 196 -26 394 43 565 28 72 64 133 150
263 81 122 140 247 166 353 18 74 21 215 5 272 -9 32 -85 167 -94 167 -2 0 -4
-26 -4 -57z"/>
<path d="M7706 4350 c-45 -74 -48 -85 -53 -163 -3 -50 0 -113 7 -153 22 -123
101 -301 178 -403 15 -20 33 -45 39 -56 123 -200 162 -312 170 -497 6 -125
-12 -267 -48 -383 -17 -58 -17 -59 0 -36 52 68 192 388 206 472 3 19 11 52 17
74 6 22 10 92 10 155 0 98 -3 127 -26 193 -32 95 -51 126 -176 283 -205 257
-262 369 -269 529 -2 33 -4 61 -5 62 -1 2 -24 -33 -50 -77z"/>
<path d="M1852 3372 c-6 -31 -13 -68 -16 -82 -24 -109 -31 -150 -44 -285 -18
-182 3 -315 75 -485 139 -325 317 -540 571 -689 28 -17 52 -29 52 -27 0 2 -23
27 -51 57 -193 204 -361 521 -458 864 -35 126 -77 322 -87 410 -3 33 -8 69
-10 79 -2 11 -6 62 -9 115 -4 53 -8 97 -9 98 -1 2 -8 -23 -14 -55z"/>
<path d="M7589 3359 c0 -35 -2 -73 -4 -84 -2 -11 -6 -42 -9 -70 -18 -191 -84
-473 -158 -670 -100 -271 -222 -481 -380 -658 -66 -73 -68 -76 -32 -56 102 58
186 121 264 199 100 100 106 107 177 217 107 164 203 393 221 527 12 95 7 264
-12 371 -9 50 -19 104 -22 120 -2 17 -9 46 -14 65 -5 19 -11 48 -14 64 -9 51
-16 41 -17 -25z"/>
<path d="M5078 3315 c-2 -2 -30 -5 -63 -9 -235 -24 -465 -110 -668 -249 -99
-67 -282 -236 -276 -254 2 -6 36 18 74 55 75 70 179 150 260 198 111 67 298
143 392 160 15 3 46 9 68 14 153 33 451 30 568 -6 9 -3 18 -2 18 3 5 27 4 65
-1 68 -18 11 -361 29 -372 20z"/>
<path d="M7010 2582 c0 -22 -135 -292 -193 -387 -90 -146 -283 -416 -352 -491
-5 -6 -41 -46 -79 -89 -281 -313 -575 -552 -861 -700 -147 -77 -152 -80 -159
-110 -7 -26 -66 -153 -89 -190 -6 -11 -29 -45 -49 -75 -21 -31 -38 -59 -38
-62 0 -7 70 24 234 102 622 296 1141 766 1369 1241 75 157 170 435 193 563 27
154 33 200 29 204 -3 3 -5 0 -5 -6z"/>
<path d="M3870 2525 c-7 -9 -11 -17 -9 -20 3 -2 10 5 17 15 14 24 10 26 -8 5z"/>
</g>
</svg>
